# xmcd
#
# Track frame offsets: 
#        150
#        6908
#        19519
#        34408
#        43997
#        51438
#        64076
#        75394
#        83874
#        94038
#        104224
#        120993
#        127193
#        142929
#
# Disc length: 2008 seconds
#
# Revision: 0
# Processed by: cddbd v1.5.2PL0 Copyright (c) Steve Scherf et al.
# Submitted via: ExactAudioCopy v0.99pb5
#
DISCID=bd07d60e
DTITLE=Bill Poss - Hay
DYEAR=2011
DGENRE=Country
TTITLE0=Hay For Sale
TTITLE1=Hardly Ever See 'Em
TTITLE2=Crossroads
TTITLE3=Cuttin' Onions
TTITLE4=Rocks and Gravel
TTITLE5=The Rocket (Fred Eaglesmith)
TTITLE6=Jack Rabbit
TTITLE7=Skinny Dog Blues
TTITLE8=Beautiful
TTITLE9=Star Motel
TTITLE10=Heaven
TTITLE11=High Hill Store
TTITLE12=The Fall
TTITLE13=Hey Daddy
EXTD=
EXTT0=
EXTT1=
EXTT2=
EXTT3=
EXTT4=
EXTT5=
EXTT6=
EXTT7=
EXTT8=
EXTT9=
EXTT10=
EXTT11=
EXTT12=
EXTT13=
PLAYORDER=
